<?xml version="1.0" encoding="utf-8"?>
<!-- Generator: Adobe Illustrator 16.0.0, SVG Export Plug-In . SVG Version: 6.00 Build 0)  -->
<!DOCTYPE svg PUBLIC "-//W3C//DTD SVG 1.1//EN" "http://www.w3.org/Graphics/SVG/1.1/DTD/svg11.dtd">
<svg version="1.1" id="Layer_1" xmlns="http://www.w3.org/2000/svg" xmlns:xlink="http://www.w3.org/1999/xlink" x="0px" y="0px"
	 width="163.979px" height="127.984px" viewBox="0 0 163.979 127.984" enable-background="new 0 0 163.979 127.984"
	 xml:space="preserve">
<g>
	<path fill-rule="evenodd" clip-rule="evenodd" d="M156.17,69.59c-2.56-15.54-7.21-30.75-11.24-46.03
		C140.94,8.39,127.36,1.67,112.67,7.15c-3.47,1.3-4.68,3.23-3.62,6.85c1.54,5.23,2.97,6.11,8.3,4.56
		c8.811-2.55,13.57,0.15,15.94,9.04c0.82,3.05,1.67,6.09,2.43,9.16c2.34,9.46,4.65,18.93,7.08,28.84
		c-1.28-0.159-1.92-0.17-2.51-0.33c-16.21-4.149-31.65-2.149-47.48,3.311c-7.119,2.46-16.379,1.6-23.85-0.561
		c-11.52-3.34-22.8-6.129-34.78-4.79c-4.37,0.49-8.69,1.49-13.12,2.28c-0.09-0.88-0.27-1.39-0.16-1.83
		c3.22-12.91,6.15-25.9,9.97-38.63c0.86-2.89,4.48-5.78,7.5-6.94c2.56-0.98,6.14,0.27,9.15,1.01c3.66,0.9,5.25-0.8,6.28-3.88
		c1-2.98,1.85-5.67-1.95-7.57C38.92,1.19,23.39,7.53,19,21.28c-1.01,3.17-1.89,6.39-2.6,9.63C11.92,51.29,4.23,71.06,6.03,92.59
		c1.02,12.23,6.24,21.12,17.1,26.71c8.13,4.19,16.92,3.38,25.5,2.79c14.87-1.03,26.21-12.77,27.42-27.63
		c0.25-3.11,0.53-6.22,0.82-9.51h9.58c0.26,3.38,0.5,6.5,0.74,9.62c1.13,14.34,12.239,26.04,26.55,27.439
		c5.439,0.53,11,0.5,16.45,0.05c12.399-1.04,23.42-9.5,25.52-21.77C157.43,90.29,157.82,79.56,156.17,69.59z M60.16,86.12
		c-0.29,2.14-0.25,4.32-0.49,6.47c-0.93,8.46-5.99,13.061-14.57,13.311c-1.49,0.04-2.99,0.01-4.49,0.01
		c-0.01,0.05-0.01,0.1-0.01,0.16c-2.49-0.2-5.03-0.12-7.44-0.641c-8.64-1.859-14.57-14.91-10.1-22.22c0.51-0.83,1.87-1.28,2.93-1.59
		c10.31-3.061,20.62-3.16,30.99-0.15C59.57,82.22,60.51,83.52,60.16,86.12z M121.77,106.95c-4.329-1.36-8.979-2.12-12.909-4.23
		c-4.11-2.2-7.5-15.08-5.681-19.149c0.38-0.851,1.681-1.511,2.681-1.83c10.64-3.44,21.319-3.271,31.89,0.18
		c1.26,0.41,2.73,2.37,2.85,3.71C141.84,100.54,136.85,105.91,121.77,106.95z"/>
</g>
</svg>
