<?xml version="1.0" encoding="utf-8"?>
<!-- Generator: Adobe Illustrator 16.0.0, SVG Export Plug-In . SVG Version: 6.00 Build 0)  -->
<!DOCTYPE svg PUBLIC "-//W3C//DTD SVG 1.1//EN" "http://www.w3.org/Graphics/SVG/1.1/DTD/svg11.dtd">
<svg version="1.1" id="Layer_1" xmlns="http://www.w3.org/2000/svg" xmlns:xlink="http://www.w3.org/1999/xlink" x="0px" y="0px"
	 width="207.974px" height="173.989px" viewBox="0 0 207.974 173.989" enable-background="new 0 0 207.974 173.989"
	 xml:space="preserve">
<g>
	<path fill-rule="evenodd" clip-rule="evenodd" d="M194.411,79.974c6.239-2.124,6.045-10.154,12.679-11.177
		c-2.085,13.28-13.749,19.874-23.271,13.746c-11.872,5.984-20.243,3.109-27.238-9.357c-2.23,2.672-4.334,5.465-6.723,7.987
		c-3.836,4.052-8.593,4.751-13.767,3.115c-5.003-1.582-6.108-5.819-6.452-10.25c-0.307-3.958-0.084-7.957-0.122-11.937
		c-0.063-6.746-1.454-8.059-8.259-7.839c-5.543,16.092-5.543,16.092-9.163,15.859c1.485-4.394,3.188-8.652,4.263-13.063
		c0.341-1.399-1.137-3.172-1.522-4.834c-0.557-2.396-1.266-4.881-1.055-7.253c0.062-0.692,3.948-2.05,4.493-1.508
		c1.659,1.653,2.544,4.083,4.271,7.18c2.436,0.163,6.222,0.197,9.939,0.714c6.336,0.881,8.061,2.728,8.261,9.092
		c0.214,6.772,0.048,13.555,0.048,22.018c3.252-2.194,5.915-3.149,7.228-5.041c3.565-5.135,8.632-8.97,10.262-15.842
		c2.342-9.87,11.766-13.174,24.563-9.751c0-9.173,0-18.243,0-28.205c3.315,0,6.315-0.415,9.082,0.205
		c1.094,0.246,2.359,2.788,2.377,4.297c0.175,15.317,0.107,30.638,0.108,45.957C194.411,75.876,194.411,77.667,194.411,79.974z
		 M182.975,68.283c0-2.772,0.015-5.259-0.003-7.745c-0.032-4.385-3.305-6.433-6.647-6.659c-1.979-0.133-5.727,2.469-5.966,4.214
		c-0.884,6.432-1.369,13.109-0.583,19.519c0.643,5.243,4.775,6.101,9.356,3.336C184.497,77.711,182.62,72.58,182.975,68.283z"/>
	<path fill-rule="evenodd" clip-rule="evenodd" d="M71.83,35.804c5.802-11.01,5.723-19.908-1.146-26.726
		c-1.362,3.761-3.225,6.893-3.556,10.179c-1.299,12.903-1.933,25.872-3.187,38.78c-0.625,6.429-1.721,12.861-3.237,19.138
		c-1.042,4.313-3.331,8.023-8.938,7.672c-5.057-0.316-8.702-2.792-9.587-8.429c-1.131-7.202-1.709-14.533-1.928-21.826
		c-0.383-12.809-0.285-25.632-0.466-38.448c-0.024-1.721-0.5-3.435-0.767-5.153c-0.499-0.109-0.999-0.218-1.497-0.327
		c-0.882,2.33-2.29,4.6-2.559,6.998c-1.465,13.047-2.413,26.156-4.042,39.181c-0.714,5.71-1.953,11.549-4.152,16.832
		c-2.757,6.622-8.026,10.961-15.683,11.369c-0.877,0.047-1.778-0.333-3.463-0.678c1.165-1.099,1.707-2.068,2.403-2.196
		c8.657-1.585,13.652-7.341,15.112-15.336c1.843-10.092,2.244-20.439,3.484-30.648c0.92-7.576,1.796-15.2,3.512-22.612
		c0.587-2.54,3.259-5.557,5.692-6.488c3.789-1.447,7.446,0.916,8.965,4.529c1.902,4.524,3.756,9.381,4.073,14.196
		c0.829,12.606,0.745,25.271,1.161,37.906c0.184,5.59,0.7,11.169,1.064,16.753c0.556,0.163,1.112,0.326,1.668,0.489
		c1.081-2.51,2.814-4.943,3.128-7.547c1.273-10.556,2.057-21.17,3.123-31.753c0.882-8.755,1.643-17.537,2.987-26.225
		c0.596-3.856,1.99-8.063,6.885-8.765c5.227-0.749,8.372,2.545,10.902,6.468c4.115,6.378,4.102,14.052,0.011,19.178
		C79.26,35.491,76.097,37.05,71.83,35.804z"/>
	<path fill-rule="evenodd" clip-rule="evenodd" d="M27.84,97.771c-13.028,2.879-19.746,15.11-15.022,26.397
		c0.63,1.506,1.4,3.185,2.609,4.157c1.41,1.134,3.373,1.578,5.095,2.322c0.641-1.879,1.422-3.727,1.857-5.652
		c0.198-0.873-0.292-1.901-0.47-2.859c0.386-0.414,0.771-0.828,1.158-1.242c1.112,1.038,3.051,1.982,3.18,3.13
		c0.381,3.393,0.943,7.396-3.183,9.106c-4.293,1.779-8.169,0.585-11.214-2.965c-6.81-7.938-5.437-23.184,2.669-29.882
		c11.623-9.602,34.147-9.524,45.726,0.156c9.047,7.566,8.714,19.971-0.739,26.979c-5.232,3.877-11.041,6.026-18.216,5.509
		c0,6.838,0.431,13.487-0.087,20.061c-1.218,15.443-15.337,23.273-29.428,16.563c-0.555-0.265-0.766-1.253-1.762-3.003
		c3.148,0.484,5.31,0.768,7.453,1.156c8.292,1.504,12.419-1.02,12.847-9.385c0.491-9.606,0.047-19.281-0.376-28.908
		C29.475,118.954,28.571,108.517,27.84,97.771z M39.565,97.071c0.611,11.258,1.198,22.075,1.788,32.945
		c8.244-1.165,14.234-8.665,14.018-16.771C55.143,104.718,48.778,97.973,39.565,97.071z"/>
	<path fill-rule="evenodd" clip-rule="evenodd" d="M142.926,155.913c-3.633,10.049-12.912,16.513-23.052,14.991
		c-3.115-0.467-6.438-3.158-8.54-5.746c-2.108-2.595-3.469-6.24-3.924-9.594c-0.367-2.703,1.551-5.637,1.678-8.503
		c0.465-10.466,0.251-20.973,1.019-31.411c0.384-5.21,1.826-10.503,3.717-15.4c2.307-5.976,7.12-7.878,13.478-6.452
		c4.92,1.105,8.074,4.769,6.602,11.088c-2.121,9.11-5.392,18.077-9.26,26.611c-2.471,5.452-4.392,10.577-3.889,16.598
		c0.401,4.802,0.094,9.668,0.601,14.452c0.529,5.005,2.754,6.408,7.03,3.804c3.693-2.249,6.52-5.91,9.782-8.889
		c1.198-1.094,2.549-2.02,3.83-3.021C142.307,154.932,142.616,155.422,142.926,155.913z M120.978,128.386
		c4.854-7.308,8.519-14.986,9.659-23.621c0.185-1.396-0.022-3.343-0.879-4.263c-1.452-1.56-3.492-3.204-5.433-3.407
		c-0.943-0.1-3.134,2.944-3.195,4.621C120.806,110.596,120.978,119.494,120.978,128.386z"/>
	<path fill-rule="evenodd" clip-rule="evenodd" d="M89.71,137.133c0,10.123,0,19.95,0,29.902c7.381-1.431,7.4-10.568,14.587-12.672
		c-3.581,15.105-15.625,21.361-24.796,14.116c-2.563,0.917-4.966,2.209-7.509,2.608c-11.01,1.729-19.32-4.3-19.987-14.231
		c-0.856-12.769,5.641-20.268,17.608-20.304c4.84-0.016,9.681-0.041,14.52,0.024C85.75,136.6,87.362,136.889,89.71,137.133z
		 M77.977,154.644c0-3.388,0.844-6.594-0.229-8.911c-1.147-2.478-3.824-4.944-6.375-5.805c-1.45-0.489-5.025,1.782-5.848,3.616
		c-2.936,6.541-2.869,13.559-0.775,20.377c1.518,4.944,4.746,5.687,9.226,3.056C79.375,163.805,77.426,158.604,77.977,154.644z"/>
	<path fill-rule="evenodd" clip-rule="evenodd" d="M108.995,68.464c-5.07,16.621-17.181,20.33-29.5,14.063
		c-6.198-3.153-8.904-11.356-7.146-19.718c1.608-7.652,6.544-11.747,15.225-12.629c9.145-0.931,13.885,3.384,13.423,12.074
		c-0.282,5.3-3.51,8.052-8.077,9.596c-2.641,0.894-5.402,1.433-8.105,2.131c2.026,7.834,7.193,9.823,13.202,5
		c2.675-2.147,4.618-5.188,7.049-7.67C106.181,70.171,107.674,69.402,108.995,68.464z M83.737,71.142
		c3.169-0.927,5.949-1.415,8.443-2.538c5.044-2.269,6.499-7.842,3.564-12.586c-2.311-3.735-5.786-4.081-8.458-0.589
		C83.895,59.858,83.139,64.979,83.737,71.142z"/>
</g>
</svg>
